<svg width="33" height="42" viewBox="0 0 33 42" fill="none" xmlns="http://www.w3.org/2000/svg">
<path d="M16.5 41.5C17.2133 41.5 17.9846 41.2005 18.7605 40.7294C19.5447 40.2534 20.3797 39.5738 21.2317 38.7476C22.9364 37.0945 24.7513 34.8131 26.4122 32.2731C28.0741 29.7315 29.5918 26.9157 30.6955 24.1869C31.7962 21.4658 32.5 18.7955 32.5 16.5556C32.5 7.69 25.3382 0.5 16.5 0.5C7.66176 0.5 0.5 7.69 0.5 16.5556C0.5 18.7955 1.20382 21.4658 2.30445 24.1869C3.40823 26.9157 4.92588 29.7315 6.58777 32.2731C8.24866 34.8131 10.0636 37.0945 11.7683 38.7476C12.6203 39.5738 13.4553 40.2534 14.2395 40.7294C15.0154 41.2005 15.7867 41.5 16.5 41.5Z" fill="white" stroke="#6AB4E1"/>
<path d="M28 16.5313C28 23.4522 20.25 37 16.5 37C12.75 37 5 23.4522 5 16.5313C5 9.61047 9.59644 5 16.5 5C23.4036 5 28 9.61047 28 16.5313Z" fill="#6AB4E1"/>
<circle cx="16.5" cy="16.5" r="4.5" fill="white"/>
</svg>
