<svg width="30" height="31" viewBox="0 0 30 31" fill="none" xmlns="http://www.w3.org/2000/svg">
<path fill-rule="evenodd" clip-rule="evenodd" d="M15 30.8824C23.2843 30.8824 30 23.9691 30 15.4412C30 6.91325 23.2843 0 15 0C6.71573 0 0 6.91325 0 15.4412C0 23.9691 6.71573 30.8824 15 30.8824ZM15 27.7941C21.6274 27.7941 27 22.2635 27 15.4412C27 8.61886 21.6274 3.08826 15 3.08826C8.37258 3.08826 3 8.61886 3 15.4412C3 22.2635 8.37258 27.7941 15 27.7941Z" fill="#6A6A6A"/>
<path fill-rule="evenodd" clip-rule="evenodd" d="M16 22.6471V27.7941H14V22.6471C14 22.6471 14 22.6471 14 22.647C14 22.0785 14.4477 21.6177 15 21.6177C15.5523 21.6177 16 22.0785 16 22.647C16 22.6471 16 22.6471 16 22.6471Z" fill="#6A6A6A"/>
<path fill-rule="evenodd" clip-rule="evenodd" d="M8 16.4706C8.55228 16.4706 9 16.0097 9 15.4412C9 14.8726 8.55228 14.4117 8 14.4117H3V16.4706H8Z" fill="#6A6A6A"/>
<path fill-rule="evenodd" clip-rule="evenodd" d="M22 14.4118C21.4477 14.4118 21 14.8726 21 15.4412C21 16.0097 21.4477 16.4706 22 16.4706H27V14.4118H22Z" fill="#6A6A6A"/>
<path fill-rule="evenodd" clip-rule="evenodd" d="M14 8.23524L14 3.08822H16V8.23524C16 8.23525 16 8.23527 16 8.23528C16 8.80379 15.5523 9.26465 15 9.26465C14.4477 9.26465 14 8.80379 14 8.23528C14 8.23527 14 8.23525 14 8.23524Z" fill="#6A6A6A"/>
</svg>
