<svg width="493" height="562" viewBox="0 0 493 562" fill="none" xmlns="http://www.w3.org/2000/svg">
<path fill-rule="evenodd" clip-rule="evenodd" d="M197.093 391H197V509.483V511.5C197 546 175 545.25 175 545.25H184C143.5 545.25 152.5 545.25 152.5 545.25L110 546C58.0852 546 16 503.915 16 452V183.5C16 174.5 20 169.5 30.5 169.5C211.918 173.492 197.428 374.972 197.093 391ZM309.993 391H310V392V506.5L309.766 511C309.71 520.397 309.766 511.5 310 521C310.615 546 330 545.25 333 545.25L383 546C434.915 546 477 503.915 477 452V179C477 127.085 434.915 85 383 85L155.954 85C304.4 132.265 309.796 373.524 309.993 391Z" fill="#2EAD76"/>
<path fill-rule="evenodd" clip-rule="evenodd" d="M197 391H197.093C197.106 390.41 197.137 389.568 197.177 388.494C198.23 360.401 205.237 173.345 30.5 169.5C20 169.5 16 174.5 16 183.5V452C16 503.915 58.0852 546 110 546L152.5 545.25H175C175 545.25 175.086 545.253 175.247 545.25C176.218 545.232 179.919 545.002 184 542.636C190.078 539.112 197 530.851 197 511.5V391ZM175.355 561.25C179.5 561.251 175.252 561.251 175.203 561.251C175.103 561.252 175.01 561.251 174.922 561.25C174.906 561.25 174.89 561.25 174.873 561.25H152.619L110.141 562H110C49.2487 562 0 512.751 0 452V183.5C0 176.981 1.41049 168.576 7.84896 161.963C14.3603 155.276 22.9975 153.5 30.5 153.5H30.676L30.852 153.504C79.3709 154.572 116.022 168.948 143.227 191.142C170.238 213.178 186.828 242.006 197.01 270.322C215.758 322.458 213.687 375.728 213.171 388.998C213.131 390.021 213.101 390.806 213.09 391.334L213 395.626V511.5C213 532.366 206.144 546.205 195.6 554.112C191.523 557.171 187.5 559 184 559.909L182 560.5L178.5 561L175.355 561.25ZM309.766 511L310 506.5V391H309.993C309.813 375.009 305.28 171.66 190.79 101C180.155 94.4362 168.571 89.0173 155.954 85H383C434.915 85 477 127.085 477 179V452C477 503.915 434.915 546 383 546L333 545.25C332.925 545.25 332.839 545.25 332.744 545.251C329.04 545.271 310.599 545.373 310 521C309.886 516.377 309.815 516.111 309.778 515.973C309.738 515.827 309.738 515.824 309.766 511ZM332.913 561.25L382.88 562H383C443.751 562 493 512.751 493 452V179C493 118.249 443.751 69 383 69H155.954L151.099 100.246C217.348 121.339 253.645 186.503 273.206 253.646C292.534 319.991 293.902 382.984 293.994 391.18L294 391.748V506.085L293.769 510.537L293.767 510.905C293.753 513.212 293.745 514.503 293.747 515.217C293.747 515.505 293.748 516.006 293.77 516.5C293.782 516.77 293.811 517.315 293.899 517.987C293.923 518.512 293.959 519.528 294.005 521.393C294.433 538.826 301.97 550.463 312.847 556.493C321.704 561.404 330.752 561.28 332.734 561.253C332.802 561.252 332.862 561.251 332.913 561.25Z" fill="#289B69"/>
<path fill-rule="evenodd" clip-rule="evenodd" d="M404 168.837C404 192.506 398.473 214.917 388.608 234.917C367.363 281.668 293.59 437.045 251.492 437.045C212.397 437.045 140.392 303.044 111.741 246.483C97.9271 223.728 90 197.184 90 168.837C90 84.4275 160.291 16 247 16C333.709 16 404 84.4275 404 168.837ZM246.405 275.288C305.196 275.288 352.856 229.226 352.856 172.405C352.856 115.585 305.196 69.5227 246.405 69.5227C187.614 69.5227 139.955 115.585 139.955 172.405C139.955 229.226 187.614 275.288 246.405 275.288Z" fill="#0ABDF4"/>
<path fill-rule="evenodd" clip-rule="evenodd" d="M388.608 234.916C367.363 281.668 293.59 437.045 251.492 437.045C212.397 437.045 140.392 303.043 111.741 246.483C97.9271 223.728 90 197.184 90 168.837C90 84.4275 160.291 16 247 16C333.709 16 404 84.4275 404 168.837C404 192.506 398.473 214.917 388.608 234.916ZM97.7392 254.249C82.6596 229.198 74 199.99 74 168.837C74 75.1884 151.863 0 247 0C342.137 0 420 75.1884 420 168.837C420 194.934 413.922 219.679 403.072 241.762C392.332 265.386 368.366 316.354 341.651 361.642C328.292 384.288 313.898 406.116 299.815 422.476C292.786 430.641 285.419 437.936 277.887 443.306C270.564 448.527 261.527 453.045 251.492 453.045C242.195 453.045 233.692 449.157 226.675 444.564C219.477 439.852 212.38 433.433 205.558 426.208C191.901 411.744 177.736 392.31 164.3 371.717C137.516 330.664 112.19 282.75 97.7392 254.249ZM246.405 259.288C296.878 259.288 336.856 219.879 336.856 172.405C336.856 124.931 296.878 85.5227 246.405 85.5227C195.932 85.5227 155.955 124.931 155.955 172.405C155.955 219.879 195.932 259.288 246.405 259.288ZM352.856 172.405C352.856 229.226 305.196 275.288 246.405 275.288C187.614 275.288 139.955 229.226 139.955 172.405C139.955 115.585 187.614 69.5227 246.405 69.5227C305.196 69.5227 352.856 115.585 352.856 172.405Z" fill="#0080A8"/>
</svg>
