<svg width="28" height="21" viewBox="0 0 28 21" fill="none" xmlns="http://www.w3.org/2000/svg">
<path fill-rule="evenodd" clip-rule="evenodd" d="M1.5 8.94118C1.67532 8.94118 1.84361 8.97215 2 9.02905V8.94118L26 8.94118V9.02905C26.1564 8.97215 26.3247 8.94118 26.5 8.94118C27.3284 8.94118 28 9.63251 28 10.4853C28 11.3381 27.3284 12.0294 26.5 12.0294C26.3247 12.0294 26.1564 11.9985 26 11.9416V12.0294L2 12.0294V11.9416C1.84361 11.9985 1.67532 12.0294 1.5 12.0294C0.671573 12.0294 0 11.3381 0 10.4853C0 9.63251 0.671573 8.94118 1.5 8.94118Z" fill="#6A6A6A"/>
<path fill-rule="evenodd" clip-rule="evenodd" d="M1.5 17.1764C1.67532 17.1764 1.84361 17.2074 2 17.2643V17.1764L26 17.1764V17.2643C26.1564 17.2074 26.3247 17.1764 26.5 17.1764C27.3284 17.1764 28 17.8677 28 18.7205C28 19.5733 27.3284 20.2646 26.5 20.2646C26.3247 20.2646 26.1564 20.2337 26 20.1768V20.2646L2 20.2646V20.1768C1.84361 20.2337 1.67532 20.2646 1.5 20.2646C0.671573 20.2646 0 19.5733 0 18.7205C0 17.8677 0.671573 17.1764 1.5 17.1764Z" fill="#6A6A6A"/>
<path fill-rule="evenodd" clip-rule="evenodd" d="M1.5 0.705832C1.67532 0.705832 1.84361 0.736794 2 0.793695V0.705832L26 0.705832V0.793695C26.1564 0.736794 26.3247 0.705832 26.5 0.705832C27.3284 0.705832 28 1.39716 28 2.24995C28 3.10274 27.3284 3.79407 26.5 3.79407C26.3247 3.79407 26.1564 3.76311 26 3.7062V3.79407L2 3.79407V3.7062C1.84361 3.76311 1.67532 3.79407 1.5 3.79407C0.671573 3.79407 0 3.10274 0 2.24995C0 1.39716 0.671573 0.705832 1.5 0.705832Z" fill="#6A6A6A"/>
</svg>
