<svg width="26" height="26" viewBox="0 0 26 26" fill="none" xmlns="http://www.w3.org/2000/svg">
<path fill-rule="evenodd" clip-rule="evenodd" d="M9.29525 18.9543C14.208 19.308 18.4691 15.4949 18.8126 10.4376C19.1562 5.38037 15.4521 0.993959 10.5393 0.64032C5.62652 0.286681 1.36543 4.09973 1.0219 9.15701C0.678361 14.2143 4.38247 18.6007 9.29525 18.9543ZM9.47292 16.338C12.9821 16.5906 16.0257 13.867 16.2711 10.2547C16.5165 6.64232 13.8707 3.50917 10.3615 3.25657C6.8524 3.00397 3.80877 5.72757 3.56339 9.33991C3.318 12.9523 5.96379 16.0854 9.47292 16.338Z" fill="#6A6A6A"/>
<path fill-rule="evenodd" clip-rule="evenodd" d="M16.0106 15.0144C16.0106 15.0143 16.0105 15.0143 16.0105 15.0143C15.5961 14.5235 14.8297 14.5108 14.2987 14.9859C13.7677 15.4611 13.6733 16.2441 14.0877 16.7349C14.0916 16.7396 14.0956 16.7441 14.0995 16.7487L20.8418 24.7329L20.8443 24.7306C20.8623 24.7555 20.8813 24.7798 20.9014 24.8036C21.3488 25.3334 22.142 25.3778 22.673 24.9027C23.2039 24.4275 23.2716 23.6128 22.8242 23.0829C22.8041 23.0592 22.7834 23.0364 22.7619 23.0146L22.7646 23.0122L16.0107 15.0143L16.0106 15.0144Z" fill="#6A6A6A"/>
</svg>
