<svg width="689" height="91" viewBox="0 0 689 91" fill="none" xmlns="http://www.w3.org/2000/svg">
<path d="M32.664 89C30.5307 89 28.9947 88.5733 28.056 87.72C27.2027 86.7813 26.776 85.3733 26.776 83.496V17.576H5.784C3.736 17.576 2.328 17.192 1.56 16.424C0.792 15.5707 0.408 14.1627 0.408 12.2V7.464C0.408 5.50133 0.792 4.09333 1.56 3.24C2.328 2.38667 3.736 1.96 5.784 1.96H69.016C71.064 1.96 72.472 2.38667 73.24 3.24C74.0933 4.09333 74.52 5.50133 74.52 7.464V12.2C74.52 14.0773 74.0933 15.4427 73.24 16.296C72.472 17.1493 71.064 17.576 69.016 17.576H48.024V83.496C48.024 85.3733 47.5547 86.7813 46.616 87.72C45.7627 88.5733 44.2693 89 42.136 89H32.664ZM78.666 89C76.5327 89 74.9967 88.5733 74.058 87.72C73.2047 86.7813 72.778 85.3733 72.778 83.496V31.272C72.778 29.8213 73.034 28.84 73.546 28.328C74.058 27.816 75.082 27.56 76.618 27.56H86.858C87.882 27.56 88.6073 27.7307 89.034 28.072C89.546 28.4133 89.8447 29.0107 89.93 29.864L90.442 33.96C95.562 28.4133 101.962 25.64 109.642 25.64C112.117 25.64 114.122 25.8533 115.658 26.28C117.279 26.6213 118.687 27.2187 119.882 28.072C120.65 28.6693 121.034 29.2667 121.034 29.864C121.034 30.12 120.949 30.504 120.778 31.016L117.578 40.616C117.237 41.64 116.682 42.152 115.914 42.152C115.573 42.152 115.146 42.024 114.634 41.768C112.415 40.6587 109.855 40.104 106.954 40.104C103.199 40.104 100.085 41.1707 97.61 43.304C95.1353 45.4373 93.898 48.296 93.898 51.88V83.496C93.898 85.3733 93.4713 86.7813 92.618 87.72C91.7647 88.5733 90.2713 89 88.138 89H78.666ZM153.476 90.92C145.284 90.92 138.713 88.36 133.764 83.24C128.9 78.12 126.468 70.9093 126.468 61.608C126.468 54.44 128.132 48.168 131.46 42.792C134.788 37.3307 139.439 33.1067 145.412 30.12C151.385 27.1333 158.297 25.64 166.148 25.64C172.207 25.64 177.54 26.3227 182.148 27.688C186.841 29.0533 191.108 31.016 194.948 33.576V85.288C194.948 86.7387 194.649 87.72 194.052 88.232C193.54 88.744 192.473 89 190.852 89H180.74C179.801 89 179.076 88.8293 178.564 88.488C178.137 88.1467 177.796 87.592 177.54 86.824L176.132 82.344C173.572 85.3307 170.457 87.5067 166.788 88.872C163.119 90.2373 158.681 90.92 153.476 90.92ZM161.284 76.328C165.039 76.328 168.281 75.2613 171.012 73.128C173.828 70.9947 175.236 68.0933 175.236 64.424V42.024C172.676 40.744 169.604 40.104 166.02 40.104C160.388 40.104 155.865 41.9813 152.452 45.736C149.124 49.4053 147.46 54.568 147.46 61.224C147.46 66.344 148.612 70.1413 150.916 72.616C153.22 75.0907 156.676 76.328 161.284 76.328ZM219.164 89C217.116 89 215.623 88.5733 214.684 87.72C213.831 86.7813 213.404 85.3733 213.404 83.496V42.408H208.284C206.236 42.408 204.828 41.9813 204.06 41.128C203.292 40.2747 202.908 38.8667 202.908 36.904V32.936C202.908 30.9733 203.292 29.608 204.06 28.84C204.828 27.9867 206.236 27.56 208.284 27.56H213.404V24.232C213.404 16.552 215.452 10.6213 219.548 6.43999C223.729 2.17333 230.001 0.0399933 238.364 0.0399933C246.812 0.0399933 253.425 1.78933 258.204 5.28799C259.143 5.97066 259.612 6.65333 259.612 7.336C259.612 7.848 259.399 8.44533 258.972 9.128L255.004 15.656C254.492 16.5093 253.895 16.936 253.212 16.936C252.785 16.936 252.273 16.7653 251.676 16.424C248.86 14.888 246.044 14.12 243.228 14.12C240.071 14.12 237.809 14.888 236.444 16.424C235.164 17.96 234.524 20.3493 234.524 23.592V27.56H247.836C249.884 27.56 251.292 27.9867 252.06 28.84C252.828 29.608 253.212 30.9733 253.212 32.936V36.904C253.212 38.8667 252.828 40.2747 252.06 41.128C251.292 41.9813 249.884 42.408 247.836 42.408H234.524V83.496C234.524 85.3733 234.097 86.7813 233.244 87.72C232.391 88.5733 230.897 89 228.764 89H219.164ZM276.164 89C274.116 89 272.623 88.5733 271.684 87.72C270.831 86.7813 270.404 85.3733 270.404 83.496V42.408H265.284C263.236 42.408 261.828 41.9813 261.06 41.128C260.292 40.2747 259.908 38.8667 259.908 36.904V32.936C259.908 30.9733 260.292 29.608 261.06 28.84C261.828 27.9867 263.236 27.56 265.284 27.56H270.404V24.872C270.404 17.192 272.879 11.1333 277.828 6.696C282.777 2.25866 289.647 0.0399933 298.436 0.0399933C307.481 0.0399933 314.479 1.78933 319.428 5.28799C320.367 5.97066 320.836 6.65333 320.836 7.336C320.836 7.848 320.623 8.44533 320.196 9.128L316.1 16.168C315.588 17.0213 315.033 17.448 314.436 17.448C314.18 17.448 313.625 17.2773 312.772 16.936C309.529 15.0587 306.329 14.12 303.172 14.12C295.151 14.12 291.14 17.704 291.14 24.872V27.56H320.708C322.841 27.56 324.335 28.0293 325.188 28.968C326.127 29.9067 326.596 31.3147 326.596 33.192V83.496C326.596 85.3733 326.127 86.7813 325.188 87.72C324.335 88.5733 322.841 89 320.708 89H311.62C309.487 89 307.951 88.5733 307.012 87.72C306.159 86.7813 305.732 85.3733 305.732 83.496V42.408H291.14V83.496C291.14 85.3733 290.713 86.7813 289.86 87.72C289.007 88.5733 287.513 89 285.38 89H276.164ZM403.525 84.776C404.037 85.3733 404.293 86.056 404.293 86.824C404.293 87.4213 404.08 87.9333 403.653 88.36C403.312 88.7867 402.757 89 401.989 89H385.989C384.965 89 384.154 88.9147 383.557 88.744C383.045 88.488 382.533 88.0613 382.021 87.464L361.669 62.376C361.413 62.12 361.114 61.736 360.773 61.224V83.496C360.773 85.3733 360.346 86.7813 359.493 87.72C358.64 88.5733 357.146 89 355.013 89H345.413C343.365 89 341.872 88.5733 340.933 87.72C340.08 86.7813 339.653 85.3733 339.653 83.496V7.592C339.653 5.71466 340.08 4.30666 340.933 3.368C341.872 2.42933 343.365 1.96 345.413 1.96H355.013C357.146 1.96 358.64 2.42933 359.493 3.368C360.346 4.22133 360.773 5.62933 360.773 7.592V53.16L361.669 52.136L381.381 29.224C381.893 28.5413 382.405 28.1147 382.917 27.944C383.514 27.688 384.368 27.56 385.477 27.56H401.349C402.032 27.56 402.586 27.7733 403.013 28.2C403.44 28.6267 403.653 29.1387 403.653 29.736C403.653 30.504 403.354 31.1867 402.757 31.784L379.077 57.256L403.525 84.776ZM438.231 89C436.866 89 435.842 88.744 435.159 88.232C434.476 87.72 433.836 86.7387 433.239 85.288L400.855 6.184C400.599 5.416 400.471 4.73333 400.471 4.13599C400.471 2.68533 401.239 1.96 402.775 1.96H418.135C419.33 1.96 420.226 2.216 420.823 2.728C421.506 3.24 422.018 3.96533 422.359 4.904L442.839 59.816L463.319 4.904C464.002 2.94133 465.452 1.96 467.671 1.96H483.031C484.567 1.96 485.335 2.68533 485.335 4.13599C485.335 4.73333 485.207 5.416 484.951 6.184L452.695 85.288C452.098 86.7387 451.415 87.72 450.647 88.232C449.964 88.744 448.94 89 447.575 89H438.231ZM495.208 18.984C492.819 18.984 490.941 18.3013 489.576 16.936C488.211 15.5707 487.528 13.9067 487.528 11.944V9C487.528 7.03733 488.211 5.37333 489.576 4.008C490.941 2.64266 492.819 1.96 495.208 1.96H502.632C505.107 1.96 507.027 2.64266 508.392 4.008C509.757 5.37333 510.44 7.03733 510.44 9V11.944C510.44 13.9067 509.757 15.5707 508.392 16.936C507.027 18.3013 505.107 18.984 502.632 18.984H495.208ZM494.184 89C492.051 89 490.557 88.5733 489.704 87.72C488.851 86.7813 488.424 85.3733 488.424 83.496V33.192C488.424 31.2293 488.851 29.8213 489.704 28.968C490.557 28.0293 492.051 27.56 494.184 27.56H503.656C505.789 27.56 507.283 28.0293 508.136 28.968C509.075 29.9067 509.544 31.3147 509.544 33.192V83.496C509.544 85.3733 509.075 86.7813 508.136 87.72C507.283 88.5733 505.789 89 503.656 89H494.184ZM557.448 90.92C550.536 90.92 544.307 89.768 538.76 87.464C533.299 85.0747 528.947 81.5333 525.704 76.84C522.547 72.0613 520.968 66.1733 520.968 59.176C520.968 48.2533 523.955 39.9333 529.928 34.216C535.987 28.4987 544.605 25.64 555.784 25.64C566.792 25.64 575.112 28.4133 580.744 33.96C586.461 39.5067 589.32 47.4 589.32 57.64C589.32 61.224 587.699 63.016 584.456 63.016H540.936C540.936 67.624 542.643 71.208 546.056 73.768C549.555 76.2427 554.333 77.48 560.392 77.48C563.976 77.48 567.091 77.1387 569.736 76.456C572.381 75.688 574.941 74.6213 577.416 73.256C578.269 72.8293 578.867 72.616 579.208 72.616C579.805 72.616 580.36 73.0853 580.872 74.024L584.584 80.936C584.925 81.5333 585.096 82.0453 585.096 82.472C585.096 83.1547 584.627 83.8373 583.688 84.52C580.275 86.7387 576.435 88.36 572.168 89.384C567.901 90.408 562.995 90.92 557.448 90.92ZM570.376 52.008C570.376 47.7413 569.181 44.4133 566.792 42.024C564.403 39.6347 560.776 38.44 555.912 38.44C551.048 38.44 547.336 39.6773 544.776 42.152C542.216 44.5413 540.936 47.8267 540.936 52.008H570.376ZM618.466 89C617.271 89 616.375 88.7867 615.778 88.36C615.266 87.9333 614.839 87.1653 614.498 86.056L597.474 30.376C597.389 30.12 597.346 29.7787 597.346 29.352C597.346 28.1573 598.114 27.56 599.65 27.56H612.962C614.071 27.56 614.839 27.7307 615.266 28.072C615.778 28.4133 616.119 29.0107 616.29 29.864L625.25 64.04L636.002 35.496C636.343 34.5573 636.727 33.9173 637.154 33.576C637.666 33.1493 638.434 32.936 639.458 32.936H646.242C647.266 32.936 647.991 33.1493 648.418 33.576C648.93 33.9173 649.357 34.5573 649.698 35.496L660.322 64.04L669.41 29.864C669.581 29.0107 669.879 28.4133 670.306 28.072C670.733 27.7307 671.501 27.56 672.61 27.56H686.05C688.013 27.56 688.738 28.4987 688.226 30.376L671.074 86.056C670.733 87.1653 670.263 87.9333 669.666 88.36C669.154 88.7867 668.343 89 667.234 89H657.25C656.141 89 655.33 88.7867 654.818 88.36C654.306 87.9333 653.837 87.1653 653.41 86.056L642.786 57.256L632.162 86.056C631.735 87.1653 631.266 87.9333 630.754 88.36C630.242 88.7867 629.431 89 628.322 89H618.466Z" fill="#0080A8"/>
</svg>
